# xmcd
#
# Track frame offsets:
#  150
#  3605
#  12778
#  30333
#  40896
#  57955
#  70075
#  84604
#  96525
#  109521
#  123825
#  135623
#  147259
#  157133
#  167856
#  177459
#  193546
#  209514
#  226281
#  236638
#  251110
#  267450
#  280879
#  297710
#  309836
#  321517
#  332828
#  345536
#
# Disc length: 4772 seconds
#
# Revision: 0
# Processed by: cddbd v1.5.2PL0 Copyright (c) Steve Scherf et al.
# Submitted via: Collectorz.com_Music_Collector 6.10
#
DISCID=a812a21c
DTITLE=Various Artist - Country and Western [CD 1)
DYEAR=2000
DGENRE=Country
TTITLE0=Incident In A Saloon
TTITLE1=Hillbilly - Maybelline
TTITLE2=Tom McCraw - I Like It, I Love It
TTITLE3=Steven Seagal and Marley Stewart - Give Me Back My Heart
TTITLE4=Kimber Clatton - Jose Cuervo
TTITLE5=Bobby Bare - 500 Miles
TTITLE6=Trisha Yearwood - You Done Me Wrong
TTITLE7=Jonny Cash - I Walk The Line
TTITLE8=HillBilly - Muddy Rio Grande
TTITLE9=Rednex - Cotton Eyed Joe
TTITLE10=Trisha Yearwood - That's What I Like About You
TTITLE11=Kenny Rogers - Me And Bobby McGee
TTITLE12=CCR - Hello, Mary Lou
TTITLE13=Loretta Lynn - Crazy
TTITLE14=Green - Six Days On The Road
TTITLE15=Mark Knopfler - Cannibals
TTITLE16=La Yoya Jackson - These Boots Are Made For Walking
TTITLE17=Rednex - Shooter
TTITLE18=Stetler Brothers - Flowers On The Wall
TTITLE19=Delbert McClinton - Why Me?
TTITLE20=Willie Nelson - The Golden Clips
TTITLE21=Carpenters - Sweet Sweet Smile
TTITLE22=The Shadows - Apache
TTITLE23=Lynn Anderson - Listen to A Country Song
TTITLE24=Tennessee Ernie Ford - Sixteen Tons
TTITLE25=Dolly Parton - If You Need Me
TTITLE26=Kenny Rogers - Ruby, Don't Take Your Love To Town
TTITLE27=The Ventures - Wabash Cannonbal
EXTD=
EXTT0=
EXTT1=
EXTT2=
EXTT3=
EXTT4=
EXTT5=
EXTT6=
EXTT7=
EXTT8=
EXTT9=
EXTT10=
EXTT11=
EXTT12=
EXTT13=
EXTT14=
EXTT15=
EXTT16=
EXTT17=
EXTT18=
EXTT19=
EXTT20=
EXTT21=
EXTT22=
EXTT23=
EXTT24=
EXTT25=
EXTT26=
EXTT27=
PLAYORDER=
